<svg xmlns="http://www.w3.org/2000/svg" viewBox="0 0 51.34 51.34"><defs><style>.cls-1{fill:#fff;}</style></defs><g id="Layer_2" data-name="Layer 2"><g id="Layer_1-2" data-name="Layer 1"><path class="cls-1" d="M26,18a.29.29,0,0,0-.3.3v14.8a.29.29,0,0,0,.3.3A7.71,7.71,0,0,0,26,18Z"/><path class="cls-1" d="M25.67,0A25.67,25.67,0,1,0,51.34,25.67,25.67,25.67,0,0,0,25.67,0Zm8.72,14.35L36.78,12a1.84,1.84,0,0,1,2.6,2.6L37,17a1.84,1.84,0,1,1-2.6-2.6ZM23.83,8.12a1.84,1.84,0,0,1,3.68,0V11.5a1.84,1.84,0,1,1-3.68,0ZM12,12a1.85,1.85,0,0,1,2.6,0L17,14.35a1.84,1.84,0,0,1-2.6,2.6L12,14.56A1.85,1.85,0,0,1,12,12ZM6.28,25.67a1.85,1.85,0,0,1,1.84-1.84H11.5a1.84,1.84,0,0,1,0,3.68H8.12A1.85,1.85,0,0,1,6.28,25.67ZM17,37l-2.39,2.39a1.84,1.84,0,0,1-2.6-2.6l2.39-2.39A1.84,1.84,0,1,1,17,37Zm10.56,6.23a1.84,1.84,0,0,1-3.68,0V39.84a1.84,1.84,0,1,1,3.68,0Zm-1.84-7.37A10.18,10.18,0,1,1,35.85,25.67,10.18,10.18,0,0,1,25.67,35.85Zm13.71,3.53a1.83,1.83,0,0,1-2.6,0L34.39,37a1.84,1.84,0,1,1,2.6-2.6l2.39,2.39A1.83,1.83,0,0,1,39.38,39.38Zm3.84-11.87H39.84a1.84,1.84,0,0,1,0-3.68h3.38a1.84,1.84,0,0,1,0,3.68Z"/></g></g></svg>