<svg xmlns="http://www.w3.org/2000/svg" viewBox="0 0 29.97 29.99"><defs><style>.cls-1{fill:#73b8fd;}</style></defs><g id="Layer_2" data-name="Layer 2"><g id="Layer_1-2" data-name="Layer 1"><path class="cls-1" d="M27.16,0a2.68,2.68,0,0,1,2,.82,2.72,2.72,0,0,1,.79,2,2.87,2.87,0,0,1-.82,2l-9.48,9.48V27.22a2.63,2.63,0,0,1-.73,1.87,2.89,2.89,0,0,1-1.82.88,2.71,2.71,0,0,1-2-.53l-3.75-2.75a3,3,0,0,1-1.11-2.34V14.28L.82,4.8a2.87,2.87,0,0,1-.82-2,2.72,2.72,0,0,1,.79-2,2.68,2.68,0,0,1,2-.82ZM16.86,13.11l10.3-10.3H2.81l10.3,10.3V24.35l3.75,2.81Z"/></g></g></svg>