<svg xmlns="http://www.w3.org/2000/svg" viewBox="0 0 256.01 256.01"><defs><style>.cls-1{fill:#120730;}.cls-2{fill:#fff;}</style></defs><g id="Layer_2" data-name="Layer 2"><g id="Layer_1-2" data-name="Layer 1"><rect class="cls-1" width="256.01" height="256.01"/><path class="cls-2" d="M51.71,111.3l-2.09,1.14L52,113.76l5.43,3,3,1.66,0,6,0,6,2-1.07,2.09-1.15.13-.08V116.11l-.67-.38-4.67-2.55-4.74-2.6a8.29,8.29,0,0,0-.81-.43S52.86,110.67,51.71,111.3Z"/><path class="cls-2" d="M47.45,113.65l-4.38,2.42-4.44,2.44-1,.57,0,2.32v2.32l.24-.14,2.73-1.5,5.21-2.86,2.73-1.49L50.76,119c3.14,1.72,6.36,3.48,7.58,4.16l1,.56v-4.63l-5.43-3c-3-1.63-5.44-3-5.47-3S48,113.35,47.45,113.65Z"/><path class="cls-2" d="M182.56,116.82c-2.76.27-4.29.74-5.58,1.71-1.91,1.44-2.87,3.78-3.23,7.89a51,51,0,0,0,0,6.06c.34,3.37,1.07,5.37,2.48,6.78s3.71,2.22,7.33,2.32a20.18,20.18,0,0,0,4.75-.39c4.12-.9,5.94-3.64,6.35-9.58.08-1.08.08-4,0-5.05-.42-5.85-2.19-8.48-6.29-9.39a15.18,15.18,0,0,0-3.83-.35C183.6,116.8,182.69,116.81,182.56,116.82Zm3.2,4.26a6,6,0,0,1,1,.35c1.15.55,1.78,1.64,2.1,3.63a31,31,0,0,1-.06,8.51c-.33,1.73-1,2.86-2.07,3.37a6.35,6.35,0,0,1-5.09-.06c-1.68-.88-2.32-3.26-2.22-8.3.07-3.6.47-5.4,1.47-6.5a4,4,0,0,1,2.29-1.08A11.41,11.41,0,0,1,185.76,121.08Z"/><path class="cls-2" d="M65.87,122.8v6l-1.25.69-5.29,2.9c-2.22,1.22-4.12,2.25-4.2,2.31l-.16.1,2.07,1.13c1.14.62,2.1,1.14,2.13,1.14s1.56-.83,3.4-1.83l5.41-3,2.08-1.14v-6l0-6L69,118.57l-3.16-1.73S65.86,119.53,65.87,122.8Z"/><path class="cls-2" d="M161.82,116.91c-5.88.51-8.25,3.37-8.65,10.43a31.23,31.23,0,0,0,0,3.87c.4,7,2.8,9.82,8.88,10.27a35.41,35.41,0,0,0,6.26-.24,11.78,11.78,0,0,0,3-.73c0-.07-.37-3.77-.41-3.8l-.81.07c-1.24.12-2.82.19-4.88.23-2.55.05-3.24,0-4.18-.49-1.65-.81-2.29-3.08-2.2-7.88,0-2.71.28-4.18.82-5.31a3.29,3.29,0,0,1,2.48-1.86,16.81,16.81,0,0,1,3.23-.09c1.56,0,3.33,0,3.95.07s1.13.06,1.13,0,.43-3.8.41-3.83a16.55,16.55,0,0,0-3-.62A39.39,39.39,0,0,0,161.82,116.91Z"/><path class="cls-2" d="M135.14,117c-1.27,0-3.08.16-3.8.25l-.25,0,0,5.54c0,3,0,8.42,0,11.94v6.39h5.29l0-2.55c0-1.41,0-3.52,0-4.69v-2.14l2.21,0c1.21,0,2.34,0,2.49.08a2.19,2.19,0,0,1,1.13.58c.45.46.56.79,1.59,4.82.53,2.07,1,3.79,1,3.82a25.08,25.08,0,0,0,2.87.05l2.83,0-.4-1.38c-.21-.76-.75-2.63-1.18-4.16-.84-3-1-3.3-1.5-3.95a4.15,4.15,0,0,0-2-1.38,1.38,1.38,0,0,1-.54-.25c0-.06.12-.1.46-.15a6.3,6.3,0,0,0,1.87-.6,4.37,4.37,0,0,0,1.68-1.68,7.71,7.71,0,0,0,.69-4c0-2.37-.53-3.72-1.67-4.79s-2.85-1.62-5.69-1.81C141.26,116.9,137.29,116.9,135.14,117Zm6.58,4a2.33,2.33,0,0,1,2.24,1.64,6.73,6.73,0,0,1-.2,4,2.25,2.25,0,0,1-1.64,1.12,16,16,0,0,1-3.07.13l-2.67,0v-6.94h2.47C140.21,120.88,141.5,120.91,141.72,120.94Z"/><path class="cls-2" d="M203.1,117c-1.28,0-3.08.16-3.8.25l-.25,0,0,5.54c0,3,0,8.42,0,11.94v6.39h5.29l0-2.55c0-1.41,0-3.52,0-4.69v-2.14l2.21,0c1.21,0,2.33,0,2.49.08a2.16,2.16,0,0,1,1.12.58c.45.46.56.79,1.6,4.82.53,2.07,1,3.79,1,3.82a24.94,24.94,0,0,0,2.87.05l2.82,0-.39-1.38c-.22-.76-.75-2.63-1.18-4.16-.84-3-1-3.3-1.5-3.95a4.19,4.19,0,0,0-2-1.38,1.3,1.3,0,0,1-.54-.25c0-.06.12-.1.46-.15a6.15,6.15,0,0,0,1.86-.6,4.33,4.33,0,0,0,1.69-1.68,7.71,7.71,0,0,0,.69-4c-.05-2.37-.53-3.72-1.68-4.79s-2.84-1.62-5.69-1.81C209.21,116.9,205.25,116.9,203.1,117Zm6.57,4c1.27.18,2,.69,2.25,1.64a6.81,6.81,0,0,1-.2,4,2.27,2.27,0,0,1-1.64,1.12,16,16,0,0,1-3.07.13l-2.67,0v-6.94h2.47C208.16,120.88,209.46,120.91,209.67,120.94Z"/><path class="cls-2" d="M114.75,117.25a4.78,4.78,0,0,0-3.9,2.51,4.44,4.44,0,0,0-.49,2.36c-.07,1.75-.07,14.81,0,15.26a4.53,4.53,0,0,0,3.46,3.7l.48.14h4.13c2.43,0,4.62,0,5.34-.07,2.36-.13,3.28-.2,3.32-.23a14.45,14.45,0,0,0-.07-1.8c-.06-1-.11-1.82-.11-1.89v-.13H122c-5.61,0-5.34,0-5.82-.45s-.45-.49-.45-3.45v-2.56h9.86v-3.75h-9.87l0-2.12c0-2.41,0-2.49.48-2.93s.17-.45,5.77-.47l5,0,.13-1.88c.07-1,.12-1.89.11-1.9s-1.37-.13-2.46-.2-6.68-.17-8.43-.16C115.72,117.2,115,117.23,114.75,117.25Z"/><path class="cls-2" d="M79.87,117.36a1.64,1.64,0,0,0-1.35,1.28c0,.21-1,21.55-1,22.38v.17H80c1.38,0,2.51,0,2.51-.05s.76-19.46.78-19.61,0-.19.33-.17h.3l2,7.62c1.37,5.21,2,7.71,2.16,7.92a1.77,1.77,0,0,0,.89.81l.32.15,2.3,0a9.12,9.12,0,0,0,2.68-.1,1.78,1.78,0,0,0,1-.77c.09-.16.81-2.77,2.19-7.91,1.12-4.21,2.06-7.69,2.08-7.71s.6-.07.63,0,.2,4.49.4,9.89.39,9.81.4,9.81,1.13,0,2.49,0l2.48,0L105.51,130c-.36-9.07-.45-11.19-.53-11.45a1.66,1.66,0,0,0-.63-.9c-.45-.29-.67-.3-3.79-.3-2,0-3,0-3.26.06a1.83,1.83,0,0,0-1.14.74c-.21.3-.31.67-1.87,6.57-1.26,4.78-1.72,6.66-2,8-.18.94-.34,1.71-.34,1.72s-.12,0-.26,0-.26,0-.26-.07-.11-.68-.25-1.43c-.19-1-.64-2.84-1.94-7.81-.92-3.55-1.73-6.56-1.8-6.69a2.15,2.15,0,0,0-1-.92c-.31-.13-.36-.13-3.35-.14C81.47,117.32,80,117.33,79.87,117.36Z"/><path class="cls-2" d="M44.27,121.28l-5.42,3-1.26.69v6l0,6,2,1.13,2.11,1.14s.06-2.42.06-5.93l0-6,.81-.45,5.44-3,4.63-2.54-.31-.18c-1-.54-3.9-2.14-3.91-2.14Z"/><path class="cls-2" d="M46.18,126.2l-2.06,1.13L43,128v6l0,6L46,141.55l5.4,3c1.36.75,2.48,1.35,2.51,1.35S58,143.59,58,143.55s-.68-.39-7.2-4l-3.58-2,0-6c0-3.29,0-6-.05-6S46.69,125.91,46.18,126.2Z"/><path class="cls-2" d="M48.3,134.67l0,2.32,1.07.59c3.61,2,9.74,5.34,9.8,5.34s.59-.29,1.23-.65L64.5,140l4.26-2.34L70.1,137v-2.31c0-1.26,0-2.3,0-2.3l-.16.08c-.07.05-1.75,1-3.74,2.06l-5.27,2.89c-.92.5-1.69.91-1.72.91s-1.12-.58-2.42-1.3l-5.12-2.8-3-1.68-.3-.17Z"/></g></g></svg>