<svg xmlns="http://www.w3.org/2000/svg" viewBox="0 0 233.42 255.07"><defs><style>.cls-1{opacity:0.1;}.cls-2{fill:#fff;fill-rule:evenodd;}</style></defs><g id="Layer_2" data-name="Layer 2"><g id="Layer_1-2" data-name="Layer 1"><g class="cls-1"><path id="Shape_1_copy" data-name="Shape 1 copy" class="cls-2" d="M127.05,2c2.64-2.62,5.2-2.68,7.64-.19l16.36,16.63q3.67,3.74-.29,7.67l-99.4,98.49c-4.57,4.53-6.93,8.45-7.13,11.79s1.19,6.54,4.2,9.6l3.07,3.11A11.62,11.62,0,0,0,60.59,153c3.33-.16,7.25-2.49,11.82-7l74.27-73.59q18.52-18.35,33.6-18.93t28.2,12.72l11.46,11.65a55,55,0,0,1,10.29,14,29.83,29.83,0,0,1,3.15,14.93,38.32,38.32,0,0,1-5.06,16.3q-4.66,8.52-14.37,18.14L101.1,253.06c-2.66,2.63-5.2,2.68-7.66.18L61.6,219.58q-3.69-3.75.31-7.68l17.62-17.45c2.65-2.64,5.19-2.72,7.65-.22l11.93,12.13,31.28-30.6-12-12.21c-2.46-2.51-2.35-5.05.29-7.66l17.64-17.48c2.63-2.62,5.18-2.7,7.64-.19l12.18,12.39,25.74-25.17c4.55-4.5,7-8.46,7.33-11.8s-1.26-6.8-4.8-10.41l-5.53-5.62q-4.08-4.14-9.09-3.71c-3.34.29-7.29,2.71-11.85,7.22l-74,73.37q-18.51,18.33-33.5,19t-28.48-13l-9-9.14a52.17,52.17,0,0,1-9.82-13.49A30,30,0,0,1,0,143a38,38,0,0,1,5.08-16.31q4.67-8.52,14.37-18.14Z"/></g></g></g></svg>